<svg xmlns="http://www.w3.org/2000/svg" width="101.857" height="23" fill="none"><path d="M.083 0h101.618v23H.083z"/><path fill="#FFF" fill-rule="evenodd" d="m4.215 13.16-.995 1.874v6.293H0V.837h3.22v8.928L7.435.836h3.22L6.177 9.97l4.478 11.358H7.347L4.215 13.16Zm10.986 3.454c0 .742.151 1.264.454 1.566.302.303.707.454 1.214.454.508 0 .913-.151 1.215-.454.303-.302.454-.824.454-1.566V5.55c0-.741-.151-1.263-.454-1.566-.302-.302-.707-.454-1.215-.454-.507 0-.912.152-1.214.454-.303.303-.454.825-.454 1.566v11.065Zm-3.22-10.86c0-1.659.42-2.932 1.259-3.82.839-.888 2.049-1.332 3.63-1.332 1.58 0 2.79.444 3.63 1.332.838.888 1.258 2.161 1.258 3.82V16.41c0 1.66-.42 2.933-1.259 3.82-.839.889-2.049 1.332-3.63 1.332-1.58 0-2.79-.444-3.63-1.331-.839-.888-1.258-2.162-1.258-3.82V5.753Zm15.054.732v14.841h-2.898V.837h4.04l3.308 12.265V.836h2.868v20.491h-3.307l-4.01-14.841Zm9.552-.732c0-1.659.395-2.932 1.185-3.82.79-.888 1.976-1.332 3.557-1.332 1.58 0 2.766.444 3.557 1.332.79.888 1.185 2.161 1.185 3.82v.644h-3.044V5.55c0-.741-.142-1.263-.425-1.566-.283-.302-.678-.454-1.185-.454-.508 0-.903.152-1.186.454-.283.303-.424.825-.424 1.566 0 .703.156 1.322.468 1.86a7.742 7.742 0 0 0 1.171 1.521c.468.478.971.957 1.508 1.435.536.478 1.039 1 1.507 1.566.469.566.859 1.21 1.171 1.932.312.722.468 1.57.468 2.546 0 1.66-.404 2.933-1.214 3.82-.81.889-2.006 1.332-3.586 1.332-1.581 0-2.776-.444-3.586-1.331-.81-.888-1.215-2.162-1.215-3.82v-1.26h3.044v1.464c0 .742.152 1.26.454 1.552.303.293.708.439 1.215.439.507 0 .912-.146 1.215-.44.302-.292.453-.81.453-1.55 0-.703-.156-1.323-.468-1.86a7.735 7.735 0 0 0-1.17-1.522c-.47-.478-.972-.956-1.508-1.434-.537-.478-1.04-1-1.508-1.566a7.975 7.975 0 0 1-1.17-1.932c-.313-.722-.47-1.571-.47-2.547ZM47.338.836h9.953v2.928h-3.367v17.563h-3.22V3.764h-3.366V.836ZM65.76 21.327a9.056 9.056 0 0 0-.117-.38 2.958 2.958 0 0 1-.102-.44c-.03-.175-.05-.4-.059-.673-.01-.273-.015-.614-.015-1.024v-3.22c0-.956-.165-1.63-.497-2.02-.332-.39-.869-.585-1.61-.585h-1.113v8.342h-3.22V.837h4.86c1.678 0 2.893.39 3.644 1.17.751.78 1.127 1.962 1.127 3.542v1.61c0 2.108-.702 3.494-2.108 4.157.82.332 1.381.873 1.684 1.625.302.751.453 1.663.453 2.737v3.161c0 .508.02.951.059 1.332.039.38.137.766.293 1.156h-3.279ZM62.246 3.764v6.293h1.259c.605 0 1.078-.156 1.42-.468.341-.312.512-.878.512-1.698v-2.02c0-.741-.132-1.278-.395-1.61-.264-.331-.678-.497-1.244-.497h-1.552ZM74.198.836v15.808c0 .741.151 1.258.454 1.551.302.293.707.44 1.215.44.507 0 .912-.147 1.214-.44.303-.293.454-.81.454-1.551V.836h3.044V16.44c0 1.659-.404 2.932-1.214 3.82-.81.888-2.005 1.332-3.586 1.332s-2.776-.444-3.586-1.332c-.81-.888-1.215-2.162-1.215-3.82V.836h3.22Zm17.706 0h9.953v2.928H98.49v17.563h-3.22V3.764h-3.366V.836Z"/><path fill="#00A4E5" fill-rule="evenodd" d="m82.109 11.485 8.364-10.454V21.94l-8.364-10.455Z"/><path d="M90.473 1.03v20.91l-8.364-10.455 8.364-10.454Z"/></svg>