<svg xmlns="http://www.w3.org/2000/svg" width="79.714" height="18" fill="none"><path d="M.065 0h79.527v18H.065z"/><path fill="#171819" fill-rule="evenodd" d="m3.299 10.3-.779 1.465v4.926H0V.655h2.52v6.987L5.819.655h2.52L4.834 7.802l3.505 8.889H5.75L3.3 10.299Zm8.597 2.702c0 .58.119.99.355 1.226.237.237.554.355.951.355.397 0 .714-.118.95-.355.238-.237.356-.645.356-1.226v-8.66c0-.58-.118-.988-.355-1.225-.237-.236-.554-.355-.95-.355-.398 0-.715.119-.952.355-.236.237-.355.646-.355 1.226v8.66Zm-2.52-8.499c0-1.298.329-2.294.986-2.99.656-.694 1.603-1.042 2.84-1.042 1.237 0 2.184.348 2.841 1.043s.985 1.691.985 2.99v8.338c0 1.298-.328 2.295-.985 2.99-.657.695-1.604 1.042-2.84 1.042-1.238 0-2.185-.347-2.841-1.042-.657-.695-.986-1.692-.986-2.99V4.503Zm11.782.573v11.615H18.89V.655h3.162l2.588 9.598V.655h2.245V16.69h-2.588L21.158 5.076Zm7.475-.573c0-1.298.31-2.294.928-2.99C30.18.82 31.107.472 32.344.472c1.238 0 2.165.348 2.784 1.043.618.695.928 1.691.928 2.99v.503h-2.383v-.664c0-.58-.11-.989-.332-1.226-.221-.236-.53-.355-.928-.355-.397 0-.706.119-.928.355-.221.237-.332.646-.332 1.226 0 .55.122 1.035.367 1.455.244.42.55.817.916 1.19.367.375.76.75 1.18 1.123.42.375.813.783 1.18 1.226.366.443.672.947.916 1.512.244.565.367 1.23.367 1.993 0 1.298-.317 2.295-.951 2.99-.634.695-1.57 1.042-2.806 1.042-1.238 0-2.173-.347-2.807-1.042-.634-.695-.95-1.692-.95-2.99v-.985h2.382v1.146c0 .58.118.985.355 1.214.237.229.554.343.95.343.398 0 .715-.114.952-.343.236-.23.355-.634.355-1.215 0-.55-.122-1.034-.367-1.454a6.055 6.055 0 0 0-.916-1.191c-.367-.375-.76-.749-1.18-1.123-.42-.374-.813-.783-1.18-1.226A6.238 6.238 0 0 1 29 6.496c-.245-.565-.367-1.23-.367-1.993ZM37.047.655h7.79v2.29h-2.635v13.746h-2.52V2.945h-2.635V.655ZM51.464 16.69a7.186 7.186 0 0 0-.092-.298 2.303 2.303 0 0 1-.08-.344 4.222 4.222 0 0 1-.046-.526 22.986 22.986 0 0 1-.011-.802V12.2c0-.749-.13-1.276-.39-1.581-.26-.305-.68-.458-1.26-.458h-.87v6.529h-2.52V.655h3.803c1.313 0 2.264.305 2.852.916.588.61.882 1.535.882 2.772v1.26c0 1.65-.55 2.734-1.65 3.253.642.26 1.08.683 1.318 1.271.236.588.355 1.302.355 2.142v2.475c0 .397.015.744.045 1.042.031.298.107.6.23.905h-2.566Zm-2.75-13.746v4.926h.986c.473 0 .843-.122 1.11-.367.268-.244.402-.687.402-1.328V4.595c0-.58-.104-1-.31-1.26-.206-.26-.53-.39-.973-.39h-1.215Zm9.354-2.29v12.37c0 .58.118.986.355 1.215.237.229.554.343.95.343.398 0 .715-.114.952-.343.236-.23.355-.634.355-1.215V.655h2.382v12.21c0 1.298-.317 2.295-.95 2.99-.634.695-1.57 1.042-2.807 1.042-1.237 0-2.172-.347-2.806-1.042-.634-.695-.951-1.692-.951-2.99V.655h2.52Zm13.857 0h7.789v2.29h-2.635v13.746h-2.52V2.945h-2.634V.655Z"/><path fill="#00A4E5" fill-rule="evenodd" d="M64.26 8.988 70.804.807V17.17l-6.546-8.182Z"/><path d="M70.805.807V17.17l-6.546-8.182L70.805.807Z"/></svg>