<svg xmlns="http://www.w3.org/2000/svg" width="79.565" height="23.04" fill="none"><path fill="#01996D" fill-rule="evenodd" d="M28.416 0h-4.5v22.68h4.5V0Zm2.933 3.51c0-.72.25-1.33.75-1.83.52-.52 1.14-.78 1.86-.78.72 0 1.33.26 1.83.78.52.5.78 1.11.78 1.83s-.26 1.34-.78 1.86c-.5.5-1.11.75-1.83.75s-1.34-.25-1.86-.75a2.59 2.59 0 0 1-.75-1.86Zm24.463 0q0-.573.212-1.054.186-.424.538-.776c.52-.52 1.14-.78 1.86-.78.72 0 1.33.26 1.83.78.52.5.78 1.11.78 1.83s-.26 1.34-.78 1.86c-.5.5-1.11.75-1.83.75s-1.34-.25-1.86-.75q-.377-.393-.565-.861-.185-.463-.185-.999ZM9.18 1.44h3.87l9.24 21.24h-5.28l-1.83-4.5H6.93l-1.77 4.5H0L9.18 1.44Zm1.8 6.18-2.58 6.6h5.19l-2.61-6.6Zm53.015 4.62c-.42.94-.63 1.99-.63 3.15s.21 2.21.63 3.15q.473 1.06 1.2 1.898.242.278.51.532c.74.66 1.6 1.17 2.58 1.53 1 .36 2.06.54 3.18.54s2.17-.18 3.15-.54c1-.36 1.86-.87 2.58-1.53.74-.68 1.32-1.49 1.74-2.43q.63-1.41.63-3.15t-.63-3.15c-.42-.94-1-1.74-1.74-2.4-.72-.68-1.58-1.2-2.58-1.56-.98-.36-2.03-.54-3.15-.54s-2.18.18-3.18.54q-1.102.405-2.002 1.08-.3.225-.578.48a7.19 7.19 0 0 0-1.71 2.4ZM31.71 8.1h4.5v14.58h-4.5V8.1Zm11.063 0h-4.86l6.03 14.58h4.77l5.76-14.58h-4.53l-3.42 9.9h-.06l-3.69-9.9Zm13.4 0h4.5v14.58h-4.5V8.1Zm12.623 9.96c-.62-.68-.93-1.57-.93-2.67 0-1.1.31-1.99.93-2.67q.192-.204.414-.367.888-.653 2.256-.653c1.14 0 2.02.34 2.64 1.02q.203.216.364.46.596.91.596 2.21 0 1.3-.597 2.21-.16.244-.363.46c-.62.68-1.5 1.02-2.64 1.02q-1.368 0-2.256-.653-.222-.163-.414-.367Z"/></svg>