<svg xmlns="http://www.w3.org/2000/svg" width="18" height="14.143" fill="none"><path fill="#000" fill-rule="evenodd" d="M16.39 0C17.26 0 18 .72 18 1.6c0 1.13-.84 2.14-1.72 2.75-1.57 1.09-3.15 2.17-4.7 3.27C10.92 8.07 9.82 9 9.01 9h-.03c-.81 0-1.91-.93-2.57-1.38-1.55-1.1-3.13-2.18-4.69-3.27C1.01 3.87 0 2.74 0 1.82 0 .84.53 0 1.6 0h14.79Zm.6 5.43c.36-.25.7-.54 1.01-.87v7.97c0 .88-.73 1.61-1.61 1.61H1.6c-.88 0-1.6-.73-1.6-1.61V4.56c.3.33.64.62 1.01.87C2.68 6.56 4.36 7.7 6 8.89c.85.63 1.89 1.39 2.98 1.39h.03c1.09 0 2.13-.76 2.98-1.39 1.64-1.18 3.32-2.33 5-3.46Z"/></svg>