<svg xmlns="http://www.w3.org/2000/svg" width="60" height="60" fill="none"><path fill="#F7654A" d="M54.04 5.95C50.18 2.12 45.09 0 39.65 0c-5.44 0-10.52 2.12-14.39 5.95a20.288 20.288 0 0 0-5.66 10.88c-.07.42-.13.84-.16 1.26-.04.41-.07.83-.1 1.25-.03.32-.03.68-.03 1V40.71H36.92c.03-.35.03-.67.03-1.03v-2.73H23.07V20.37c0-.35 0-.68.04-1.03.03-.42.06-.84.13-1.25.06-.42.12-.84.22-1.26.68-3.15 2.29-5.99 4.47-8.21 3-2.99 7.15-4.86 11.72-4.86 9.14 0 16.58 7.44 16.58 16.58 0 4.57-1.87 8.72-4.86 11.72a16.544 16.544 0 0 1-8.21 4.47V40.39c4.09-.71 7.89-2.67 10.88-5.66C57.87 30.9 60 25.78 60 20.34c0-5.44-2.13-10.56-5.96-14.39Z"/><path fill="#F7654A" d="M23.07 23.07H36.95v16.61c0 .36 0 .68-.03 1.03-.04.42-.07.84-.13 1.26-.07.42-.13.84-.23 1.25-.67 3.16-2.28 5.99-4.47 8.21-3 3-7.15 4.86-11.72 4.86-9.14 0-16.58-7.43-16.58-16.57 0-4.57 1.87-8.73 4.86-11.72 2.22-2.22 5.06-3.8 8.21-4.47v-3.87c-4.09.71-7.88 2.67-10.88 5.67C2.12 29.09 0 34.21 0 39.65c0 5.44 2.12 10.53 5.95 14.39C9.78 57.87 14.9 60 20.34 60c5.44 0 10.52-2.13 14.39-5.96 3.6-3.61 5.69-8.34 5.92-13.39 0-.16 0-.32.03-.48V19.31H23.07c-.03.35-.03.67-.03 1.03l.03 2.73Z"/></svg>