<svg width="48" height="48" viewBox="0 0 48 48" fill="none" xmlns="http://www.w3.org/2000/svg">
<path fill-rule="evenodd" clip-rule="evenodd" d="M42.528 4.65178C42.3422 4.46731 42.1217 4.32097 41.8789 4.22113C41.6361 4.12128 41.3758 4.06989 41.113 4.06989C40.8502 4.06989 40.5899 4.12128 40.3471 4.22113C40.1043 4.32097 39.8837 4.46731 39.698 4.65178L37.954 6.38185C36.8339 5.85163 35.5756 5.67891 34.3524 5.88748C33.1293 6.09605 32.0013 6.67565 31.124 7.54647L9.90999 28.589L21.224 39.8126L42.44 18.7681C44.288 16.9369 44.678 14.2049 43.612 11.9947L45.358 10.2626C45.7329 9.89054 45.9436 9.38599 45.9436 8.85989C45.9436 8.3338 45.7329 7.82925 45.358 7.45719L42.528 4.65178ZM33.992 21.5358L21.224 34.2018L15.568 28.589L28.334 15.925L33.992 21.5378V21.5358ZM37.628 17.9289L39.608 15.9647C39.7939 15.7804 39.9415 15.5616 40.0421 15.3207C40.1428 15.0799 40.1946 14.8217 40.1946 14.561C40.1946 14.3003 40.1428 14.0421 40.0421 13.8012C39.9415 13.5604 39.7939 13.3416 39.608 13.1573L36.782 10.3519C36.5962 10.1674 36.3757 10.0211 36.1329 9.92123C35.8901 9.82138 35.6298 9.76999 35.367 9.76999C35.1042 9.76999 34.8439 9.82138 34.6011 9.92123C34.3583 10.0211 34.1377 10.1674 33.952 10.3519L31.972 12.3161L37.628 17.9308V17.9289Z" fill="#4694DC"/>
<path d="M4 45.6357L8.244 30.204L19.556 41.4276L4 45.6357Z" fill="#4694DC"/>
</svg>
