<svg xmlns="http://www.w3.org/2000/svg" width="60" height="48" fill="none"><path fill="#F7654A" fill-rule="evenodd" d="M48 18h9.75c1.21 0 2.25 1.03 2.25 2.25V46.5c0 .84-.75 1.5-1.5 1.5H57c-.85 0-1.5-.66-1.5-1.5v-24h-12v-18h-15v9h-24v33c0 .84-.75 1.5-1.5 1.5H1.5C.65 48 0 47.34 0 46.5V11.25C0 10.03.93 9 2.25 9H6V1.5C6 .75 6.65 0 7.5 0H9c.75 0 1.5.75 1.5 1.5V9h6V1.5c0-.75.65-1.5 1.5-1.5h1.5c.75 0 1.5.75 1.5 1.5V9h3V2.25C24 1.03 24.93 0 26.25 0h19.5C46.96 0 48 1.03 48 2.25V18ZM34.12 9h3.75c.56 0 1.13.56 1.13 1.12v3.75c0 .66-.57 1.13-1.13 1.13h-3.75c-.66 0-1.12-.47-1.12-1.13v-3.75c0-.56.46-1.12 1.12-1.12Zm-24 9h3.75c.56 0 1.13.56 1.13 1.12v3.75c0 .66-.57 1.13-1.13 1.13h-3.75C9.46 24 9 23.53 9 22.87v-3.75c0-.56.46-1.12 1.12-1.12ZM18 19.12c0-.56.46-1.12 1.12-1.12h3.75c.56 0 1.13.56 1.13 1.12v3.75c0 .66-.57 1.13-1.13 1.13h-3.75c-.66 0-1.12-.47-1.12-1.13v-3.75ZM34.12 18h3.75c.56 0 1.13.56 1.13 1.12v3.75c0 .66-.57 1.13-1.13 1.13h-3.75c-.66 0-1.12-.47-1.12-1.13v-3.75c0-.56.46-1.12 1.12-1.12Zm-24 9h3.75c.56 0 1.13.56 1.13 1.12v3.75c0 .66-.57 1.13-1.13 1.13h-3.75C9.46 33 9 32.53 9 31.87v-3.75c0-.56.46-1.12 1.12-1.12ZM18 28.12c0-.56.46-1.12 1.12-1.12h3.75c.56 0 1.13.56 1.13 1.12v3.75c0 .66-.57 1.13-1.13 1.13h-3.75c-.66 0-1.12-.47-1.12-1.13v-3.75ZM34.12 27h3.75c.56 0 1.13.56 1.13 1.12v3.75c0 .66-.57 1.13-1.13 1.13h-3.75c-.66 0-1.12-.47-1.12-1.13v-3.75c0-.56.46-1.12 1.12-1.12ZM45 28.12c0-.56.46-1.12 1.12-1.12h3.75c.56 0 1.13.56 1.13 1.12v3.75c0 .66-.57 1.13-1.13 1.13h-3.75c-.66 0-1.12-.47-1.12-1.13v-3.75ZM10.12 36h3.75c.56 0 1.13.56 1.13 1.12v3.75c0 .66-.57 1.13-1.13 1.13h-3.75C9.46 42 9 41.53 9 40.87v-3.75c0-.56.46-1.12 1.12-1.12ZM18 37.12c0-.56.46-1.12 1.12-1.12h3.75c.56 0 1.13.56 1.13 1.12v3.75c0 .66-.57 1.13-1.13 1.13h-3.75c-.66 0-1.12-.47-1.12-1.13v-3.75Zm27 0c0-.56.46-1.12 1.12-1.12h3.75c.56 0 1.13.56 1.13 1.12v3.75c0 .66-.57 1.13-1.13 1.13h-3.75c-.66 0-1.12-.47-1.12-1.13v-3.75Z"/></svg>