<svg viewBox="0 0 357 233.7" xmlns="http://www.w3.org/2000/svg" xmlns:xlink="http://www.w3.org/1999/xlink" width="357.000000" height="233.700012" fill="none">
	<rect id="Frame" width="357.000000" height="233.699997" x="0.000000" y="0.000000" fill="rgb(255,255,255)" fill-opacity="0" />
	<g id="Group">
		<path id="Vector" d="M337.3 225.4L24.1 225.4C19.9 225.4 16.5 222 16.5 217.8L16.5 7.6C16.5 3.4 19.9 0 24.1 0L337.3 0C341.5 0 344.9 3.4 344.9 7.6L344.9 217.7C345 222 341.5 225.4 337.3 225.4Z" fill="rgb(0,213,228)" fill-rule="nonzero" />
	</g>
	<g id="Group">
		<path id="Vector" d="M326.2 217.8L35.2 217.8C31 217.8 27.6 214.4 27.6 210.2L27.6 15.3C27.6 11.1 31 7.70001 35.2 7.70001L326.2 7.70001C330.4 7.70001 333.8 11.1 333.8 15.3L333.8 210.2C333.9 214.3 330.4 217.8 326.2 217.8Z" fill="rgb(6,80,144)" fill-rule="nonzero" />
	</g>
	<g id="Group">
		<g id="Group">
			<path id="Vector" d="M115.6 28.9L75.4 28.9L75.4 33.4L115.6 33.4L115.6 28.9Z" fill="rgb(252,253,253)" fill-rule="evenodd" />
		</g>
		<g id="Group">
			<path id="Vector" d="M101 38.9L75.4 38.9L75.4 43.4L101 43.4L101 38.9Z" fill="rgb(252,253,253)" fill-rule="evenodd" />
		</g>
		<g id="Group">
			<path id="Vector" d="M218.5 38.9L115.4 38.9L115.4 43.4L218.5 43.4L218.5 38.9Z" fill="rgb(252,253,253)" fill-rule="evenodd" />
		</g>
		<g id="Group">
			<path id="Vector" d="M282.5 38.9L228.5 38.9L228.5 43.4L282.5 43.4L282.5 38.9Z" fill="rgb(255,100,82)" fill-rule="evenodd" />
		</g>
		<g id="Group">
			<path id="Vector" d="M150.5 48.9L85.4 48.9L85.4 53.4L150.5 53.4L150.5 48.9Z" fill="rgb(0,208,80)" fill-rule="evenodd" />
		</g>
		<g id="Group">
			<path id="Vector" d="M267.5 48.9L170.5 48.9L170.5 53.4L267.5 53.4L267.5 48.9Z" fill="rgb(252,253,253)" fill-rule="evenodd" />
		</g>
		<g id="Group">
			<path id="Vector" d="M167 58.9L75.4 58.9L75.4 63.4L167 63.4L167 58.9Z" fill="rgb(255,100,82)" fill-rule="evenodd" />
		</g>
		<g id="Group">
			<path id="Vector" d="M240.5 58.9L175.4 58.9L175.4 63.4L240.5 63.4L240.5 58.9Z" fill="rgb(0,213,228)" fill-rule="evenodd" />
		</g>
		<g id="Group">
			<path id="Vector" d="M150.5 68.9L85.4 68.9L85.4 73.4L150.5 73.4L150.5 68.9Z" fill="rgb(252,253,253)" fill-rule="evenodd" />
		</g>
		<g id="Group">
			<path id="Vector" d="M170.5 78.9L75.4 78.9L75.4 83.4L170.5 83.4L170.5 78.9Z" fill="rgb(252,253,253)" fill-rule="evenodd" />
		</g>
		<g id="Group">
			<path id="Vector" d="M140.5 88.9L75.4 88.9L75.4 93.4L140.5 93.4L140.5 88.9Z" fill="rgb(252,253,253)" fill-rule="evenodd" />
		</g>
		<g id="Group">
			<path id="Vector" d="M204 98.9L95.4 98.9L95.4 103.4L204 103.4L204 98.9Z" fill="rgb(255,100,82)" fill-rule="evenodd" />
		</g>
		<g id="Group">
			<path id="Vector" d="M250.5 98.9L215.4 98.9L215.4 103.4L250.5 103.4L250.5 98.9Z" fill="rgb(252,253,253)" fill-rule="evenodd" />
		</g>
		<g id="Group">
			<path id="Vector" d="M300.5 98.9L265.4 98.9L265.4 103.4L300.5 103.4L300.5 98.9Z" fill="rgb(252,253,253)" fill-rule="evenodd" />
		</g>
		<g id="Group">
			<path id="Vector" d="M149.7 108.9L105.4 108.9L105.4 113.4L149.7 113.4L149.7 108.9Z" fill="rgb(252,253,253)" fill-rule="evenodd" />
		</g>
		<g id="Group">
			<path id="Vector" d="M164.5 118.9L105.4 118.9L105.4 123.4L164.5 123.4L164.5 118.9Z" fill="rgb(255,100,82)" fill-rule="evenodd" />
		</g>
		<g id="Group">
			<path id="Vector" d="M250.5 118.9L185.4 118.9L185.4 123.4L250.5 123.4L250.5 118.9Z" fill="rgb(252,253,253)" fill-rule="evenodd" />
		</g>
		<g id="Group">
			<path id="Vector" d="M292.5 118.9L265.4 118.9L265.4 123.4L292.5 123.4L292.5 118.9Z" fill="rgb(255,100,82)" fill-rule="evenodd" />
		</g>
		<g id="Group">
			<path id="Vector" d="M115.4 128.9L75.4 128.9L75.4 133.4L115.4 133.4L115.4 128.9Z" fill="rgb(252,253,253)" fill-rule="evenodd" />
		</g>
		<g id="Group">
			<path id="Vector" d="M140.5 138.9L75.4 138.9L75.4 143.4L140.5 143.4L140.5 138.9Z" fill="rgb(252,253,253)" fill-rule="evenodd" />
		</g>
		<g id="Group">
			<path id="Vector" d="M223.5 148.9L105.4 148.9L105.4 153.4L223.5 153.4L223.5 148.9Z" fill="rgb(252,253,253)" fill-rule="evenodd" />
		</g>
		<g id="Group">
			<path id="Vector" d="M308.5 148.9L235.4 148.9L235.4 153.4L308.5 153.4L308.5 148.9Z" fill="rgb(0,213,228)" fill-rule="evenodd" />
		</g>
		<g id="Group">
			<path id="Vector" d="M145.5 158.9L105.4 158.9L105.4 163.4L145.5 163.4L145.5 158.9Z" fill="rgb(252,253,253)" fill-rule="evenodd" />
		</g>
		<g id="Group">
			<path id="Vector" d="M195.5 158.9L155.4 158.9L155.4 163.4L195.5 163.4L195.5 158.9Z" fill="rgb(0,208,80)" fill-rule="evenodd" />
		</g>
		<g id="Group">
			<path id="Vector" d="M245.5 158.9L205.4 158.9L205.4 163.4L245.5 163.4L245.5 158.9Z" fill="rgb(252,253,253)" fill-rule="evenodd" />
		</g>
		<g id="Group">
			<path id="Vector" d="M140.5 168.9L75.4 168.9L75.4 173.4L140.5 173.4L140.5 168.9Z" fill="rgb(252,253,253)" fill-rule="evenodd" />
		</g>
		<g id="Group">
			<path id="Vector" d="M160.5 178.9L95.4 178.9L95.4 183.4L160.5 183.4L160.5 178.9Z" fill="rgb(0,208,80)" fill-rule="evenodd" />
		</g>
		<g id="Group">
			<path id="Vector" d="M238 178.9L172.9 178.9L172.9 183.4L238 183.4L238 178.9Z" fill="rgb(0,208,80)" fill-rule="evenodd" />
		</g>
		<g id="Group">
			<path id="Vector" d="M208 198.9L171.5 198.9L171.5 203.4L208 203.4L208 198.9Z" fill="rgb(252,253,253)" fill-rule="evenodd" />
		</g>
		<g id="Group">
			<path id="Vector" d="M192 188.9L95.4 188.9L95.4 193.4L192 193.4L192 188.9Z" fill="rgb(252,253,253)" fill-rule="evenodd" />
		</g>
		<g id="Group">
			<g id="Group">
				<path id="Vector" d="M50.3 28.9L45.8 28.9L45.8 33.4L50.3 33.4L50.3 28.9Z" fill="rgb(94,148,193)" fill-rule="evenodd" />
			</g>
			<g id="Group">
				<path id="Vector" d="M50.3 38.9L45.8 38.9L45.8 43.4L50.3 43.4L50.3 38.9Z" fill="rgb(94,148,193)" fill-rule="evenodd" />
			</g>
			<g id="Group">
				<path id="Vector" d="M50.3 48.9L45.8 48.9L45.8 53.4L50.3 53.4L50.3 48.9Z" fill="rgb(94,148,193)" fill-rule="evenodd" />
			</g>
			<g id="Group">
				<path id="Vector" d="M50.3 58.9L45.8 58.9L45.8 63.4L50.3 63.4L50.3 58.9Z" fill="rgb(94,148,193)" fill-rule="evenodd" />
			</g>
			<g id="Group">
				<path id="Vector" d="M50.3 68.9L45.8 68.9L45.8 73.4L50.3 73.4L50.3 68.9Z" fill="rgb(94,148,193)" fill-rule="evenodd" />
			</g>
			<g id="Group">
				<path id="Vector" d="M50.3 78.9L45.8 78.9L45.8 83.4L50.3 83.4L50.3 78.9Z" fill="rgb(94,148,193)" fill-rule="evenodd" />
			</g>
			<g id="Group">
				<path id="Vector" d="M50.3 88.9L45.8 88.9L45.8 93.4L50.3 93.4L50.3 88.9Z" fill="rgb(94,148,193)" fill-rule="evenodd" />
			</g>
			<g id="Group">
				<path id="Vector" d="M50.3 98.9L45.8 98.9L45.8 103.4L50.3 103.4L50.3 98.9Z" fill="rgb(94,148,193)" fill-rule="evenodd" />
			</g>
			<g id="Group">
				<path id="Vector" d="M50.3 108.9L45.8 108.9L45.8 113.4L50.3 113.4L50.3 108.9Z" fill="rgb(94,148,193)" fill-rule="evenodd" />
			</g>
			<g id="Group">
				<path id="Vector" d="M50.3 118.9L45.8 118.9L45.8 123.4L50.3 123.4L50.3 118.9Z" fill="rgb(94,148,193)" fill-rule="evenodd" />
			</g>
			<g id="Group">
				<path id="Vector" d="M50.3 128.9L45.8 128.9L45.8 133.4L50.3 133.4L50.3 128.9Z" fill="rgb(94,148,193)" fill-rule="evenodd" />
			</g>
			<g id="Group">
				<path id="Vector" d="M50.3 138.9L45.8 138.9L45.8 143.4L50.3 143.4L50.3 138.9Z" fill="rgb(94,148,193)" fill-rule="evenodd" />
			</g>
			<g id="Group">
				<path id="Vector" d="M50.3 148.9L45.8 148.9L45.8 153.4L50.3 153.4L50.3 148.9Z" fill="rgb(94,148,193)" fill-rule="evenodd" />
			</g>
			<g id="Group">
				<path id="Vector" d="M50.3 158.9L45.8 158.9L45.8 163.4L50.3 163.4L50.3 158.9Z" fill="rgb(94,148,193)" fill-rule="evenodd" />
			</g>
			<g id="Group">
				<path id="Vector" d="M50.3 168.9L45.8 168.9L45.8 173.4L50.3 173.4L50.3 168.9Z" fill="rgb(94,148,193)" fill-rule="evenodd" />
			</g>
			<g id="Group">
				<path id="Vector" d="M50.3 178.9L45.8 178.9L45.8 183.4L50.3 183.4L50.3 178.9Z" fill="rgb(94,148,193)" fill-rule="evenodd" />
			</g>
			<g id="Group">
				<path id="Vector" d="M50.3 188.9L45.8 188.9L45.8 193.4L50.3 193.4L50.3 188.9Z" fill="rgb(94,148,193)" fill-rule="evenodd" />
			</g>
			<g id="Group">
				<path id="Vector" d="M50.3 198.9L45.8 198.9L45.8 203.4L50.3 203.4L50.3 198.9Z" fill="rgb(94,148,193)" fill-rule="evenodd" />
			</g>
		</g>
		<g id="Group">
			<path id="Vector" d="M143.7 198.9L95.4 198.9L95.4 203.4L143.7 203.4L143.7 198.9Z" fill="rgb(252,253,253)" fill-rule="evenodd" />
		</g>
		<g id="Group">
			<g id="Group">
				<path id="Vector" d="M284.7 203.3L265.7 195.2L265.7 191.9L284.7 183.8L284.7 187.3L269.6 193.5L284.7 199.7L284.7 203.3Z" fill="rgb(252,253,253)" fill-rule="nonzero" />
			</g>
			<g id="Group">
				<path id="Vector" d="M298.1 179L289.8 207.7L287 207.7L295.3 179L298.1 179Z" fill="rgb(252,253,253)" fill-rule="nonzero" />
			</g>
			<g id="Group">
				<path id="Vector" d="M319.3 195.2L300.3 203.3L300.3 199.8L315.4 193.6L300.3 187.4L300.3 183.9L319.3 192L319.3 195.2Z" fill="rgb(252,253,253)" fill-rule="nonzero" />
			</g>
		</g>
	</g>
	<g id="Group">
		<path id="Vector" d="M337 233.7L20 233.7C9 233.7 0 224.7 0 213.7L357 213.7C357 224.8 348 233.7 337 233.7Z" fill="rgb(0,187,211)" fill-rule="nonzero" />
	</g>
	<g id="Group" opacity="0.100000001">
		<g id="Group" opacity="0.100000001">
			<path id="Vector" d="M129.4 217.8L204 7.59998L175.7 7.59998L101.1 217.8L129.4 217.8Z" opacity="0.100000001" fill="rgb(255,255,255)" fill-rule="nonzero" />
		</g>
		<g id="Group" opacity="0.100000001">
			<path id="Vector" d="M35.3 217.8L48.6 217.8L123.2 7.59998L35.3 7.59998C31.1 7.59998 27.7 11 27.7 15.2L27.7 210.1C27.6 214.3 31.1 217.8 35.3 217.8Z" opacity="0.100000001" fill="rgb(255,255,255)" fill-rule="nonzero" />
		</g>
		<g id="Group" opacity="0.100000001">
			<path id="Vector" d="M287.6 217.8L326.3 217.8C330.5 217.8 333.9 214.4 333.9 210.2L333.9 87.4L287.6 217.8Z" opacity="0.100000001" fill="rgb(255,255,255)" fill-rule="nonzero" />
		</g>
	</g>
	<g id="Group" opacity="0.100000001">
		<g id="Group" opacity="0.100000001">
			<path id="Vector" d="M184.3 217.8L236.2 217.8L310.8 7.59998L258.9 7.59998L184.3 217.8Z" opacity="0.100000001" fill="rgb(255,255,255)" fill-rule="nonzero" />
		</g>
	</g>
	<g id="Group">
		<path id="Vector" d="M354.3 223.7C356 220.8 357 217.3 357 213.7L0 213.7C0 217.3 1 220.8 2.7 223.7L354.3 223.7Z" fill="rgb(21,215,226)" fill-rule="nonzero" />
	</g>
</svg>
